<svg xmlns="http://www.w3.org/2000/svg" viewBox="0 0 760 480" role="img" aria-labelledby="title desc">
<title id="title">The Compliance Advantage visual</title>
<desc id="desc">A flywheel connecting intelligence, design, trust, access and growth.</desc>
<defs>
  <linearGradient id="bg2" x1="0" y1="0" x2="1" y2="1"><stop stop-color="#1b2b24"/><stop offset="1" stop-color="#42614f"/></linearGradient>
  <linearGradient id="ring" x1="0" y1="0" x2="1" y2="1"><stop stop-color="#d5ef47"/><stop offset="1" stop-color="#90aa29"/></linearGradient>
  <filter id="shadow2"><feDropShadow dx="0" dy="15" stdDeviation="18" flood-color="#101a15" flood-opacity=".34"/></filter>
</defs>
<rect width="760" height="480" rx="34" fill="url(#bg2)"/>
<circle cx="385" cy="226" r="148" fill="none" stroke="#f6f3e9" stroke-opacity=".14" stroke-width="68"/>
<path d="M385 78 A148 148 0 0 1 521 166" fill="none" stroke="url(#ring)" stroke-width="68" stroke-linecap="round"/>
<path d="M521 166 A148 148 0 0 1 496 340" fill="none" stroke="#bbd53d" stroke-width="68" stroke-linecap="round"/>
<path d="M496 340 A148 148 0 0 1 298 347" fill="none" stroke="#8fad35" stroke-width="68" stroke-linecap="round"/>
<path d="M298 347 A148 148 0 0 1 238 173" fill="none" stroke="#6e925f" stroke-width="68" stroke-linecap="round"/>
<path d="M238 173 A148 148 0 0 1 385 78" fill="none" stroke="#a8bcae" stroke-width="68" stroke-linecap="round"/>
<circle cx="385" cy="226" r="82" fill="#f7f3e8" filter="url(#shadow2)"/>
<g font-family="Arial, sans-serif" text-anchor="middle">
  <text x="385" y="205" font-size="17" fill="#6a756f" font-weight="700" letter-spacing="2">COMPLIANCE</text>
  <text x="385" y="239" font-size="28" fill="#18231e" font-weight="800">ADVANTAGE</text>
  <text x="385" y="268" font-size="14" fill="#718078" font-weight="700">TRUST · ACCESS · SPEED</text>
</g>
<g font-family="Arial, sans-serif" fill="#f6f3e9" font-size="16" font-weight="700">
  <text x="372" y="42">INTELLIGENCE</text><text x="575" y="150">DESIGN</text><text x="575" y="375">TRUST</text><text x="110" y="375">ACCESS</text><text x="105" y="145">GROWTH</text>
</g>
</svg>
